# xmcd
#
# Track frame offsets:
#	150
#	13154
#	21525
#	31651
#	45488
#	52060
#	63555
#
# Disc length: 955 seconds
#
# Revision: 1
# Processed by: cddbd v1.5.2PL0 Copyright (c) Steve Scherf et al.
# Submitted via: audiograbber 1.83.01
#
DISCID=5a03b907
DTITLE=Missiomusica - Kolêdy Europy
DYEAR=1900
DGENRE=
TTITLE0=W Betlejemie dzwony bija (koleda hiszpanska)
TTITLE1=W oborze maly Jezus (koleda dunska)
TTITLE2=Witaj mily Panie (koleda holenderska)
TTITLE3=W stajni na sianie (koleda szkocka)
TTITLE4=Radosna nowina (koleda francuska)
TTITLE5=Radosc dzis nastala (koleda ukrainska)
TTITLE6=Gdy noca na polu (koleda austriacka)
EXTD=
EXTT0=
EXTT1=
EXTT2=
EXTT3=
EXTT4=
EXTT5=
EXTT6=
PLAYORDER=
